<mxfile host="app.diagrams.net" agent="Mozilla/5.0 (Windows NT 10.0; Win64; x64) AppleWebKit/537.36 (KHTML, like Gecko) Chrome/131.0.0.0 Safari/537.36" version="24.9.0">
  <diagram name="Pagina-1" id="Hsld3cg1v6XtpQA-iXIp">
    <mxGraphModel dx="1185" dy="422" grid="1" gridSize="10" guides="1" tooltips="1" connect="1" arrows="1" fold="1" page="1" pageScale="1" pageWidth="827" pageHeight="1169" background="none" math="0" shadow="0">
      <root>
        <mxCell id="0" />
        <mxCell id="1" parent="0" />
        <mxCell id="GJ7OKZnw5Xzyx3DYVOwt-128" style="edgeStyle=orthogonalEdgeStyle;rounded=0;orthogonalLoop=1;jettySize=auto;html=1;exitX=0.5;exitY=0;exitDx=0;exitDy=0;entryX=0.5;entryY=1;entryDx=0;entryDy=0;strokeWidth=2;endSize=10;" edge="1" parent="1" source="GJ7OKZnw5Xzyx3DYVOwt-2" target="GJ7OKZnw5Xzyx3DYVOwt-118">
          <mxGeometry relative="1" as="geometry" />
        </mxCell>
        <mxCell id="GJ7OKZnw5Xzyx3DYVOwt-2" value="&lt;b&gt;Rettangolo&lt;/b&gt;" style="swimlane;fontStyle=0;align=center;verticalAlign=top;childLayout=stackLayout;horizontal=1;startSize=30;horizontalStack=0;resizeParent=1;resizeParentMax=0;resizeLast=0;collapsible=0;marginBottom=0;html=1;whiteSpace=wrap;" vertex="1" parent="1">
          <mxGeometry x="146" y="1440" width="140" height="210" as="geometry" />
        </mxCell>
        <mxCell id="GJ7OKZnw5Xzyx3DYVOwt-3" value="attributi" style="text;html=1;strokeColor=none;fillColor=none;align=center;verticalAlign=middle;spacingLeft=4;spacingRight=4;overflow=hidden;rotatable=0;points=[[0,0.5],[1,0.5]];portConstraint=eastwest;whiteSpace=wrap;" vertex="1" parent="GJ7OKZnw5Xzyx3DYVOwt-2">
          <mxGeometry y="30" width="140" height="20" as="geometry" />
        </mxCell>
        <mxCell id="GJ7OKZnw5Xzyx3DYVOwt-4" value="double base&lt;div&gt;double altezza&lt;/div&gt;&lt;div&gt;&lt;span style=&quot;color: rgb(128, 128, 128);&quot;&gt;Colore colore&lt;/span&gt;&lt;/div&gt;" style="text;html=1;strokeColor=none;fillColor=none;align=left;verticalAlign=middle;spacingLeft=4;spacingRight=4;overflow=hidden;rotatable=0;points=[[0,0.5],[1,0.5]];portConstraint=eastwest;whiteSpace=wrap;" vertex="1" parent="GJ7OKZnw5Xzyx3DYVOwt-2">
          <mxGeometry y="50" width="140" height="50" as="geometry" />
        </mxCell>
        <mxCell id="GJ7OKZnw5Xzyx3DYVOwt-7" value="" style="line;strokeWidth=1;fillColor=none;align=left;verticalAlign=middle;spacingTop=-1;spacingLeft=3;spacingRight=3;rotatable=0;labelPosition=right;points=[];portConstraint=eastwest;" vertex="1" parent="GJ7OKZnw5Xzyx3DYVOwt-2">
          <mxGeometry y="100" width="140" height="8" as="geometry" />
        </mxCell>
        <mxCell id="GJ7OKZnw5Xzyx3DYVOwt-8" value="metodi" style="text;html=1;strokeColor=none;fillColor=none;align=center;verticalAlign=middle;spacingLeft=4;spacingRight=4;overflow=hidden;rotatable=0;points=[[0,0.5],[1,0.5]];portConstraint=eastwest;whiteSpace=wrap;" vertex="1" parent="GJ7OKZnw5Xzyx3DYVOwt-2">
          <mxGeometry y="108" width="140" height="20" as="geometry" />
        </mxCell>
        <mxCell id="GJ7OKZnw5Xzyx3DYVOwt-9" value="double calcolaPerimetro&lt;div&gt;double calcolaArea&lt;/div&gt;&lt;div&gt;&lt;br&gt;&lt;/div&gt;&lt;div&gt;@Override&lt;/div&gt;&lt;div&gt;void toString&lt;/div&gt;&lt;div&gt;&lt;br&gt;&lt;/div&gt;" style="text;html=1;strokeColor=none;fillColor=none;align=left;verticalAlign=middle;spacingLeft=4;spacingRight=4;overflow=hidden;rotatable=0;points=[[0,0.5],[1,0.5]];portConstraint=eastwest;whiteSpace=wrap;" vertex="1" parent="GJ7OKZnw5Xzyx3DYVOwt-2">
          <mxGeometry y="128" width="140" height="82" as="geometry" />
        </mxCell>
        <mxCell id="GJ7OKZnw5Xzyx3DYVOwt-11" value="&lt;b&gt;Stampante&lt;/b&gt;&lt;div&gt;&lt;br/&gt;&lt;/div&gt;" style="swimlane;fontStyle=0;align=center;verticalAlign=top;childLayout=stackLayout;horizontal=1;startSize=30;horizontalStack=0;resizeParent=1;resizeParentMax=0;resizeLast=0;collapsible=0;marginBottom=0;html=1;whiteSpace=wrap;" vertex="1" parent="1">
          <mxGeometry x="190" y="460" width="140" height="158" as="geometry" />
        </mxCell>
        <mxCell id="GJ7OKZnw5Xzyx3DYVOwt-12" value="attributi" style="text;html=1;strokeColor=none;fillColor=none;align=center;verticalAlign=middle;spacingLeft=4;spacingRight=4;overflow=hidden;rotatable=0;points=[[0,0.5],[1,0.5]];portConstraint=eastwest;whiteSpace=wrap;" vertex="1" parent="GJ7OKZnw5Xzyx3DYVOwt-11">
          <mxGeometry y="30" width="140" height="20" as="geometry" />
        </mxCell>
        <mxCell id="GJ7OKZnw5Xzyx3DYVOwt-13" value="attribute1" style="text;html=1;strokeColor=none;fillColor=none;align=left;verticalAlign=middle;spacingLeft=4;spacingRight=4;overflow=hidden;rotatable=0;points=[[0,0.5],[1,0.5]];portConstraint=eastwest;whiteSpace=wrap;" vertex="1" parent="GJ7OKZnw5Xzyx3DYVOwt-11">
          <mxGeometry y="50" width="140" height="20" as="geometry" />
        </mxCell>
        <mxCell id="GJ7OKZnw5Xzyx3DYVOwt-14" value="inherited attribute2" style="text;html=1;strokeColor=none;fillColor=none;align=left;verticalAlign=middle;spacingLeft=4;spacingRight=4;overflow=hidden;rotatable=0;points=[[0,0.5],[1,0.5]];portConstraint=eastwest;fontColor=#808080;whiteSpace=wrap;" vertex="1" parent="GJ7OKZnw5Xzyx3DYVOwt-11">
          <mxGeometry y="70" width="140" height="20" as="geometry" />
        </mxCell>
        <mxCell id="GJ7OKZnw5Xzyx3DYVOwt-15" value="..." style="text;html=1;strokeColor=none;fillColor=none;align=left;verticalAlign=middle;spacingLeft=4;spacingRight=4;overflow=hidden;rotatable=0;points=[[0,0.5],[1,0.5]];portConstraint=eastwest;whiteSpace=wrap;" vertex="1" parent="GJ7OKZnw5Xzyx3DYVOwt-11">
          <mxGeometry y="90" width="140" height="20" as="geometry" />
        </mxCell>
        <mxCell id="GJ7OKZnw5Xzyx3DYVOwt-16" value="" style="line;strokeWidth=1;fillColor=none;align=left;verticalAlign=middle;spacingTop=-1;spacingLeft=3;spacingRight=3;rotatable=0;labelPosition=right;points=[];portConstraint=eastwest;" vertex="1" parent="GJ7OKZnw5Xzyx3DYVOwt-11">
          <mxGeometry y="110" width="140" height="8" as="geometry" />
        </mxCell>
        <mxCell id="GJ7OKZnw5Xzyx3DYVOwt-17" value="metodi" style="text;html=1;strokeColor=none;fillColor=none;align=center;verticalAlign=middle;spacingLeft=4;spacingRight=4;overflow=hidden;rotatable=0;points=[[0,0.5],[1,0.5]];portConstraint=eastwest;whiteSpace=wrap;" vertex="1" parent="GJ7OKZnw5Xzyx3DYVOwt-11">
          <mxGeometry y="118" width="140" height="20" as="geometry" />
        </mxCell>
        <mxCell id="GJ7OKZnw5Xzyx3DYVOwt-18" value="operation1" style="text;html=1;strokeColor=none;fillColor=none;align=left;verticalAlign=middle;spacingLeft=4;spacingRight=4;overflow=hidden;rotatable=0;points=[[0,0.5],[1,0.5]];portConstraint=eastwest;whiteSpace=wrap;" vertex="1" parent="GJ7OKZnw5Xzyx3DYVOwt-11">
          <mxGeometry y="138" width="140" height="20" as="geometry" />
        </mxCell>
        <mxCell id="GJ7OKZnw5Xzyx3DYVOwt-19" value="&lt;b&gt;Cartuccia&lt;/b&gt;&lt;br&gt;{abstract}" style="swimlane;fontStyle=0;align=center;verticalAlign=top;childLayout=stackLayout;horizontal=1;startSize=55;horizontalStack=0;resizeParent=1;resizeParentMax=0;resizeLast=0;collapsible=0;marginBottom=0;html=1;whiteSpace=wrap;fillColor=#dae8fc;strokeColor=#6c8ebf;" vertex="1" parent="1">
          <mxGeometry x="460" y="450" width="140" height="170" as="geometry" />
        </mxCell>
        <mxCell id="GJ7OKZnw5Xzyx3DYVOwt-20" value="attributi" style="text;html=1;strokeColor=none;fillColor=none;align=center;verticalAlign=middle;spacingLeft=4;spacingRight=4;overflow=hidden;rotatable=0;points=[[0,0.5],[1,0.5]];portConstraint=eastwest;whiteSpace=wrap;" vertex="1" parent="GJ7OKZnw5Xzyx3DYVOwt-19">
          <mxGeometry y="55" width="140" height="20" as="geometry" />
        </mxCell>
        <mxCell id="GJ7OKZnw5Xzyx3DYVOwt-21" value="double val" style="text;html=1;strokeColor=none;fillColor=none;align=left;verticalAlign=middle;spacingLeft=4;spacingRight=4;overflow=hidden;rotatable=0;points=[[0,0.5],[1,0.5]];portConstraint=eastwest;whiteSpace=wrap;" vertex="1" parent="GJ7OKZnw5Xzyx3DYVOwt-19">
          <mxGeometry y="75" width="140" height="20" as="geometry" />
        </mxCell>
        <mxCell id="GJ7OKZnw5Xzyx3DYVOwt-24" value="" style="line;strokeWidth=1;fillColor=none;align=left;verticalAlign=middle;spacingTop=-1;spacingLeft=3;spacingRight=3;rotatable=0;labelPosition=right;points=[];portConstraint=eastwest;" vertex="1" parent="GJ7OKZnw5Xzyx3DYVOwt-19">
          <mxGeometry y="95" width="140" height="8" as="geometry" />
        </mxCell>
        <mxCell id="GJ7OKZnw5Xzyx3DYVOwt-25" value="metodi" style="text;html=1;strokeColor=none;fillColor=none;align=center;verticalAlign=middle;spacingLeft=4;spacingRight=4;overflow=hidden;rotatable=0;points=[[0,0.5],[1,0.5]];portConstraint=eastwest;whiteSpace=wrap;" vertex="1" parent="GJ7OKZnw5Xzyx3DYVOwt-19">
          <mxGeometry y="103" width="140" height="20" as="geometry" />
        </mxCell>
        <mxCell id="GJ7OKZnw5Xzyx3DYVOwt-26" value="sostituisci&lt;div&gt;abstract utilizzo&lt;/div&gt;" style="text;html=1;strokeColor=none;fillColor=none;align=left;verticalAlign=middle;spacingLeft=4;spacingRight=4;overflow=hidden;rotatable=0;points=[[0,0.5],[1,0.5]];portConstraint=eastwest;whiteSpace=wrap;" vertex="1" parent="GJ7OKZnw5Xzyx3DYVOwt-19">
          <mxGeometry y="123" width="140" height="47" as="geometry" />
        </mxCell>
        <mxCell id="GJ7OKZnw5Xzyx3DYVOwt-27" value="&lt;b&gt;CartucciaR&lt;/b&gt;" style="swimlane;fontStyle=0;align=center;verticalAlign=top;childLayout=stackLayout;horizontal=1;startSize=30;horizontalStack=0;resizeParent=1;resizeParentMax=0;resizeLast=0;collapsible=0;marginBottom=0;html=1;whiteSpace=wrap;" vertex="1" parent="1">
          <mxGeometry x="700" y="340" width="140" height="118" as="geometry" />
        </mxCell>
        <mxCell id="GJ7OKZnw5Xzyx3DYVOwt-28" value="attributi" style="text;html=1;strokeColor=none;fillColor=none;align=center;verticalAlign=middle;spacingLeft=4;spacingRight=4;overflow=hidden;rotatable=0;points=[[0,0.5],[1,0.5]];portConstraint=eastwest;whiteSpace=wrap;" vertex="1" parent="GJ7OKZnw5Xzyx3DYVOwt-27">
          <mxGeometry y="30" width="140" height="20" as="geometry" />
        </mxCell>
        <mxCell id="GJ7OKZnw5Xzyx3DYVOwt-88" style="edgeStyle=orthogonalEdgeStyle;rounded=0;orthogonalLoop=1;jettySize=auto;html=1;exitX=0;exitY=0.5;exitDx=0;exitDy=0;endSize=10;" edge="1" parent="GJ7OKZnw5Xzyx3DYVOwt-27" source="GJ7OKZnw5Xzyx3DYVOwt-30">
          <mxGeometry relative="1" as="geometry">
            <mxPoint x="-100" y="190" as="targetPoint" />
            <Array as="points">
              <mxPoint x="-50" y="60" />
              <mxPoint x="-50" y="190" />
            </Array>
          </mxGeometry>
        </mxCell>
        <mxCell id="GJ7OKZnw5Xzyx3DYVOwt-30" value="double val" style="text;html=1;strokeColor=none;fillColor=none;align=left;verticalAlign=middle;spacingLeft=4;spacingRight=4;overflow=hidden;rotatable=0;points=[[0,0.5],[1,0.5]];portConstraint=eastwest;fontColor=#808080;whiteSpace=wrap;" vertex="1" parent="GJ7OKZnw5Xzyx3DYVOwt-27">
          <mxGeometry y="50" width="140" height="20" as="geometry" />
        </mxCell>
        <mxCell id="GJ7OKZnw5Xzyx3DYVOwt-32" value="" style="line;strokeWidth=1;fillColor=none;align=left;verticalAlign=middle;spacingTop=-1;spacingLeft=3;spacingRight=3;rotatable=0;labelPosition=right;points=[];portConstraint=eastwest;" vertex="1" parent="GJ7OKZnw5Xzyx3DYVOwt-27">
          <mxGeometry y="70" width="140" height="8" as="geometry" />
        </mxCell>
        <mxCell id="GJ7OKZnw5Xzyx3DYVOwt-33" value="metodi" style="text;html=1;strokeColor=none;fillColor=none;align=center;verticalAlign=middle;spacingLeft=4;spacingRight=4;overflow=hidden;rotatable=0;points=[[0,0.5],[1,0.5]];portConstraint=eastwest;whiteSpace=wrap;" vertex="1" parent="GJ7OKZnw5Xzyx3DYVOwt-27">
          <mxGeometry y="78" width="140" height="20" as="geometry" />
        </mxCell>
        <mxCell id="GJ7OKZnw5Xzyx3DYVOwt-34" value="utilizzo" style="text;html=1;strokeColor=none;fillColor=none;align=left;verticalAlign=middle;spacingLeft=4;spacingRight=4;overflow=hidden;rotatable=0;points=[[0,0.5],[1,0.5]];portConstraint=eastwest;whiteSpace=wrap;" vertex="1" parent="GJ7OKZnw5Xzyx3DYVOwt-27">
          <mxGeometry y="98" width="140" height="20" as="geometry" />
        </mxCell>
        <mxCell id="GJ7OKZnw5Xzyx3DYVOwt-35" value="&lt;b&gt;CartucciaG&lt;/b&gt;" style="swimlane;fontStyle=0;align=center;verticalAlign=top;childLayout=stackLayout;horizontal=1;startSize=30;horizontalStack=0;resizeParent=1;resizeParentMax=0;resizeLast=0;collapsible=0;marginBottom=0;html=1;whiteSpace=wrap;" vertex="1" parent="1">
          <mxGeometry x="700" y="470" width="140" height="118" as="geometry" />
        </mxCell>
        <mxCell id="GJ7OKZnw5Xzyx3DYVOwt-36" value="attributi" style="text;html=1;strokeColor=none;fillColor=none;align=center;verticalAlign=middle;spacingLeft=4;spacingRight=4;overflow=hidden;rotatable=0;points=[[0,0.5],[1,0.5]];portConstraint=eastwest;whiteSpace=wrap;" vertex="1" parent="GJ7OKZnw5Xzyx3DYVOwt-35">
          <mxGeometry y="30" width="140" height="20" as="geometry" />
        </mxCell>
        <mxCell id="GJ7OKZnw5Xzyx3DYVOwt-38" value="double val" style="text;html=1;strokeColor=none;fillColor=none;align=left;verticalAlign=middle;spacingLeft=4;spacingRight=4;overflow=hidden;rotatable=0;points=[[0,0.5],[1,0.5]];portConstraint=eastwest;fontColor=#808080;whiteSpace=wrap;" vertex="1" parent="GJ7OKZnw5Xzyx3DYVOwt-35">
          <mxGeometry y="50" width="140" height="20" as="geometry" />
        </mxCell>
        <mxCell id="GJ7OKZnw5Xzyx3DYVOwt-40" value="" style="line;strokeWidth=1;fillColor=none;align=left;verticalAlign=middle;spacingTop=-1;spacingLeft=3;spacingRight=3;rotatable=0;labelPosition=right;points=[];portConstraint=eastwest;" vertex="1" parent="GJ7OKZnw5Xzyx3DYVOwt-35">
          <mxGeometry y="70" width="140" height="8" as="geometry" />
        </mxCell>
        <mxCell id="GJ7OKZnw5Xzyx3DYVOwt-41" value="metodi" style="text;html=1;strokeColor=none;fillColor=none;align=center;verticalAlign=middle;spacingLeft=4;spacingRight=4;overflow=hidden;rotatable=0;points=[[0,0.5],[1,0.5]];portConstraint=eastwest;whiteSpace=wrap;" vertex="1" parent="GJ7OKZnw5Xzyx3DYVOwt-35">
          <mxGeometry y="78" width="140" height="20" as="geometry" />
        </mxCell>
        <mxCell id="GJ7OKZnw5Xzyx3DYVOwt-42" value="utilizzo" style="text;html=1;strokeColor=none;fillColor=none;align=left;verticalAlign=middle;spacingLeft=4;spacingRight=4;overflow=hidden;rotatable=0;points=[[0,0.5],[1,0.5]];portConstraint=eastwest;whiteSpace=wrap;" vertex="1" parent="GJ7OKZnw5Xzyx3DYVOwt-35">
          <mxGeometry y="98" width="140" height="20" as="geometry" />
        </mxCell>
        <mxCell id="GJ7OKZnw5Xzyx3DYVOwt-43" value="CartucciaB" style="swimlane;fontStyle=0;align=center;verticalAlign=top;childLayout=stackLayout;horizontal=1;startSize=30;horizontalStack=0;resizeParent=1;resizeParentMax=0;resizeLast=0;collapsible=0;marginBottom=0;html=1;whiteSpace=wrap;" vertex="1" parent="1">
          <mxGeometry x="700" y="600" width="140" height="118" as="geometry" />
        </mxCell>
        <mxCell id="GJ7OKZnw5Xzyx3DYVOwt-44" value="attributi" style="text;html=1;strokeColor=none;fillColor=none;align=center;verticalAlign=middle;spacingLeft=4;spacingRight=4;overflow=hidden;rotatable=0;points=[[0,0.5],[1,0.5]];portConstraint=eastwest;whiteSpace=wrap;" vertex="1" parent="GJ7OKZnw5Xzyx3DYVOwt-43">
          <mxGeometry y="30" width="140" height="20" as="geometry" />
        </mxCell>
        <mxCell id="GJ7OKZnw5Xzyx3DYVOwt-46" value="double val" style="text;html=1;strokeColor=none;fillColor=none;align=left;verticalAlign=middle;spacingLeft=4;spacingRight=4;overflow=hidden;rotatable=0;points=[[0,0.5],[1,0.5]];portConstraint=eastwest;fontColor=#808080;whiteSpace=wrap;" vertex="1" parent="GJ7OKZnw5Xzyx3DYVOwt-43">
          <mxGeometry y="50" width="140" height="20" as="geometry" />
        </mxCell>
        <mxCell id="GJ7OKZnw5Xzyx3DYVOwt-48" value="" style="line;strokeWidth=1;fillColor=none;align=left;verticalAlign=middle;spacingTop=-1;spacingLeft=3;spacingRight=3;rotatable=0;labelPosition=right;points=[];portConstraint=eastwest;" vertex="1" parent="GJ7OKZnw5Xzyx3DYVOwt-43">
          <mxGeometry y="70" width="140" height="8" as="geometry" />
        </mxCell>
        <mxCell id="GJ7OKZnw5Xzyx3DYVOwt-49" value="metodi" style="text;html=1;strokeColor=none;fillColor=none;align=center;verticalAlign=middle;spacingLeft=4;spacingRight=4;overflow=hidden;rotatable=0;points=[[0,0.5],[1,0.5]];portConstraint=eastwest;whiteSpace=wrap;" vertex="1" parent="GJ7OKZnw5Xzyx3DYVOwt-43">
          <mxGeometry y="78" width="140" height="20" as="geometry" />
        </mxCell>
        <mxCell id="GJ7OKZnw5Xzyx3DYVOwt-50" value="utilizzo" style="text;html=1;strokeColor=none;fillColor=none;align=left;verticalAlign=middle;spacingLeft=4;spacingRight=4;overflow=hidden;rotatable=0;points=[[0,0.5],[1,0.5]];portConstraint=eastwest;whiteSpace=wrap;" vertex="1" parent="GJ7OKZnw5Xzyx3DYVOwt-43">
          <mxGeometry y="98" width="140" height="20" as="geometry" />
        </mxCell>
        <mxCell id="GJ7OKZnw5Xzyx3DYVOwt-90" style="edgeStyle=orthogonalEdgeStyle;rounded=0;orthogonalLoop=1;jettySize=auto;html=1;exitX=0.5;exitY=1;exitDx=0;exitDy=0;entryX=0.5;entryY=0;entryDx=0;entryDy=0;endArrow=none;endFill=0;" edge="1" parent="1" source="GJ7OKZnw5Xzyx3DYVOwt-57" target="GJ7OKZnw5Xzyx3DYVOwt-19">
          <mxGeometry relative="1" as="geometry" />
        </mxCell>
        <mxCell id="GJ7OKZnw5Xzyx3DYVOwt-57" value="&lt;b&gt;EccezioneFineInchiostro&lt;/b&gt;" style="swimlane;fontStyle=0;align=center;verticalAlign=top;childLayout=stackLayout;horizontal=1;startSize=55;horizontalStack=0;resizeParent=1;resizeParentMax=0;resizeLast=0;collapsible=0;marginBottom=0;html=1;whiteSpace=wrap;" vertex="1" parent="1">
          <mxGeometry x="440" y="220" width="180" height="130" as="geometry" />
        </mxCell>
        <mxCell id="GJ7OKZnw5Xzyx3DYVOwt-60" value="" style="line;strokeWidth=1;fillColor=none;align=left;verticalAlign=middle;spacingTop=-1;spacingLeft=3;spacingRight=3;rotatable=0;labelPosition=right;points=[];portConstraint=eastwest;" vertex="1" parent="GJ7OKZnw5Xzyx3DYVOwt-57">
          <mxGeometry y="55" width="180" height="8" as="geometry" />
        </mxCell>
        <mxCell id="GJ7OKZnw5Xzyx3DYVOwt-61" value="metodi" style="text;html=1;strokeColor=none;fillColor=none;align=center;verticalAlign=middle;spacingLeft=4;spacingRight=4;overflow=hidden;rotatable=0;points=[[0,0.5],[1,0.5]];portConstraint=eastwest;whiteSpace=wrap;" vertex="1" parent="GJ7OKZnw5Xzyx3DYVOwt-57">
          <mxGeometry y="63" width="180" height="20" as="geometry" />
        </mxCell>
        <mxCell id="GJ7OKZnw5Xzyx3DYVOwt-62" value="eccezioneFineInchiostro" style="text;html=1;strokeColor=none;fillColor=none;align=left;verticalAlign=middle;spacingLeft=4;spacingRight=4;overflow=hidden;rotatable=0;points=[[0,0.5],[1,0.5]];portConstraint=eastwest;whiteSpace=wrap;" vertex="1" parent="GJ7OKZnw5Xzyx3DYVOwt-57">
          <mxGeometry y="83" width="180" height="47" as="geometry" />
        </mxCell>
        <mxCell id="GJ7OKZnw5Xzyx3DYVOwt-63" value="&lt;b&gt;Cartuccia&lt;/b&gt;&lt;br&gt;{abstract}" style="swimlane;fontStyle=0;align=center;verticalAlign=top;childLayout=stackLayout;horizontal=1;startSize=55;horizontalStack=0;resizeParent=1;resizeParentMax=0;resizeLast=0;collapsible=0;marginBottom=0;html=1;whiteSpace=wrap;" vertex="1" parent="1">
          <mxGeometry x="1210" y="540" width="140" height="170" as="geometry" />
        </mxCell>
        <mxCell id="GJ7OKZnw5Xzyx3DYVOwt-64" value="attributi" style="text;html=1;strokeColor=none;fillColor=none;align=center;verticalAlign=middle;spacingLeft=4;spacingRight=4;overflow=hidden;rotatable=0;points=[[0,0.5],[1,0.5]];portConstraint=eastwest;whiteSpace=wrap;" vertex="1" parent="GJ7OKZnw5Xzyx3DYVOwt-63">
          <mxGeometry y="55" width="140" height="20" as="geometry" />
        </mxCell>
        <mxCell id="GJ7OKZnw5Xzyx3DYVOwt-65" value="double val" style="text;html=1;strokeColor=none;fillColor=none;align=left;verticalAlign=middle;spacingLeft=4;spacingRight=4;overflow=hidden;rotatable=0;points=[[0,0.5],[1,0.5]];portConstraint=eastwest;whiteSpace=wrap;" vertex="1" parent="GJ7OKZnw5Xzyx3DYVOwt-63">
          <mxGeometry y="75" width="140" height="20" as="geometry" />
        </mxCell>
        <mxCell id="GJ7OKZnw5Xzyx3DYVOwt-66" value="" style="line;strokeWidth=1;fillColor=none;align=left;verticalAlign=middle;spacingTop=-1;spacingLeft=3;spacingRight=3;rotatable=0;labelPosition=right;points=[];portConstraint=eastwest;" vertex="1" parent="GJ7OKZnw5Xzyx3DYVOwt-63">
          <mxGeometry y="95" width="140" height="8" as="geometry" />
        </mxCell>
        <mxCell id="GJ7OKZnw5Xzyx3DYVOwt-67" value="metodi" style="text;html=1;strokeColor=none;fillColor=none;align=center;verticalAlign=middle;spacingLeft=4;spacingRight=4;overflow=hidden;rotatable=0;points=[[0,0.5],[1,0.5]];portConstraint=eastwest;whiteSpace=wrap;" vertex="1" parent="GJ7OKZnw5Xzyx3DYVOwt-63">
          <mxGeometry y="103" width="140" height="20" as="geometry" />
        </mxCell>
        <mxCell id="GJ7OKZnw5Xzyx3DYVOwt-68" value="sostituisci&lt;div&gt;utilizzo&lt;/div&gt;" style="text;html=1;strokeColor=none;fillColor=none;align=left;verticalAlign=middle;spacingLeft=4;spacingRight=4;overflow=hidden;rotatable=0;points=[[0,0.5],[1,0.5]];portConstraint=eastwest;whiteSpace=wrap;" vertex="1" parent="GJ7OKZnw5Xzyx3DYVOwt-63">
          <mxGeometry y="123" width="140" height="47" as="geometry" />
        </mxCell>
        <mxCell id="GJ7OKZnw5Xzyx3DYVOwt-135" style="edgeStyle=orthogonalEdgeStyle;rounded=0;orthogonalLoop=1;jettySize=auto;html=1;exitX=0.5;exitY=0;exitDx=0;exitDy=0;entryX=0.5;entryY=1;entryDx=0;entryDy=0;endSize=15;strokeWidth=2;endArrow=diamond;endFill=0;" edge="1" parent="1" source="GJ7OKZnw5Xzyx3DYVOwt-69" target="GJ7OKZnw5Xzyx3DYVOwt-129">
          <mxGeometry relative="1" as="geometry" />
        </mxCell>
        <mxCell id="GJ7OKZnw5Xzyx3DYVOwt-69" value="&lt;b&gt;Colore&lt;/b&gt;" style="swimlane;fontStyle=0;align=center;verticalAlign=top;childLayout=stackLayout;horizontal=1;startSize=30;horizontalStack=0;resizeParent=1;resizeParentMax=0;resizeLast=0;collapsible=0;marginBottom=0;html=1;whiteSpace=wrap;" vertex="1" parent="1">
          <mxGeometry x="580" y="1200" width="140" height="150" as="geometry" />
        </mxCell>
        <mxCell id="GJ7OKZnw5Xzyx3DYVOwt-70" value="attributi" style="text;html=1;strokeColor=none;fillColor=none;align=center;verticalAlign=middle;spacingLeft=4;spacingRight=4;overflow=hidden;rotatable=0;points=[[0,0.5],[1,0.5]];portConstraint=eastwest;whiteSpace=wrap;" vertex="1" parent="GJ7OKZnw5Xzyx3DYVOwt-69">
          <mxGeometry y="30" width="140" height="20" as="geometry" />
        </mxCell>
        <mxCell id="GJ7OKZnw5Xzyx3DYVOwt-71" value="int red&lt;div&gt;int green&lt;/div&gt;&lt;div&gt;int blue&lt;/div&gt;" style="text;html=1;strokeColor=none;fillColor=none;align=left;verticalAlign=middle;spacingLeft=4;spacingRight=4;overflow=hidden;rotatable=0;points=[[0,0.5],[1,0.5]];portConstraint=eastwest;whiteSpace=wrap;" vertex="1" parent="GJ7OKZnw5Xzyx3DYVOwt-69">
          <mxGeometry y="50" width="140" height="50" as="geometry" />
        </mxCell>
        <mxCell id="GJ7OKZnw5Xzyx3DYVOwt-72" value="" style="line;strokeWidth=1;fillColor=none;align=left;verticalAlign=middle;spacingTop=-1;spacingLeft=3;spacingRight=3;rotatable=0;labelPosition=right;points=[];portConstraint=eastwest;" vertex="1" parent="GJ7OKZnw5Xzyx3DYVOwt-69">
          <mxGeometry y="100" width="140" height="8" as="geometry" />
        </mxCell>
        <mxCell id="GJ7OKZnw5Xzyx3DYVOwt-73" value="metodi" style="text;html=1;strokeColor=none;fillColor=none;align=center;verticalAlign=middle;spacingLeft=4;spacingRight=4;overflow=hidden;rotatable=0;points=[[0,0.5],[1,0.5]];portConstraint=eastwest;whiteSpace=wrap;" vertex="1" parent="GJ7OKZnw5Xzyx3DYVOwt-69">
          <mxGeometry y="108" width="140" height="20" as="geometry" />
        </mxCell>
        <mxCell id="GJ7OKZnw5Xzyx3DYVOwt-74" value="&lt;div&gt;equals&lt;/div&gt;" style="text;html=1;strokeColor=none;fillColor=none;align=left;verticalAlign=middle;spacingLeft=4;spacingRight=4;overflow=hidden;rotatable=0;points=[[0,0.5],[1,0.5]];portConstraint=eastwest;whiteSpace=wrap;" vertex="1" parent="GJ7OKZnw5Xzyx3DYVOwt-69">
          <mxGeometry y="128" width="140" height="22" as="geometry" />
        </mxCell>
        <mxCell id="GJ7OKZnw5Xzyx3DYVOwt-138" style="edgeStyle=orthogonalEdgeStyle;shape=connector;rounded=0;orthogonalLoop=1;jettySize=auto;html=1;exitX=0.5;exitY=0;exitDx=0;exitDy=0;strokeColor=default;strokeWidth=2;align=center;verticalAlign=middle;fontFamily=Helvetica;fontSize=11;fontColor=default;labelBackgroundColor=default;endArrow=classic;endSize=10;dashed=1;" edge="1" parent="1" source="GJ7OKZnw5Xzyx3DYVOwt-75" target="GJ7OKZnw5Xzyx3DYVOwt-81">
          <mxGeometry relative="1" as="geometry" />
        </mxCell>
        <mxCell id="GJ7OKZnw5Xzyx3DYVOwt-75" value="&lt;b&gt;ImgVect&lt;/b&gt;" style="swimlane;fontStyle=0;align=center;verticalAlign=top;childLayout=stackLayout;horizontal=1;startSize=30;horizontalStack=0;resizeParent=1;resizeParentMax=0;resizeLast=0;collapsible=0;marginBottom=0;html=1;whiteSpace=wrap;" vertex="1" parent="1">
          <mxGeometry x="298" y="980" width="156" height="155" as="geometry" />
        </mxCell>
        <mxCell id="GJ7OKZnw5Xzyx3DYVOwt-76" value="attributi" style="text;html=1;strokeColor=none;fillColor=none;align=center;verticalAlign=middle;spacingLeft=4;spacingRight=4;overflow=hidden;rotatable=0;points=[[0,0.5],[1,0.5]];portConstraint=eastwest;whiteSpace=wrap;" vertex="1" parent="GJ7OKZnw5Xzyx3DYVOwt-75">
          <mxGeometry y="30" width="156" height="20" as="geometry" />
        </mxCell>
        <mxCell id="GJ7OKZnw5Xzyx3DYVOwt-77" value="int formeMaxPerImmagine&lt;div&gt;ArrayList&amp;lt;Forma&amp;gt; forme&lt;/div&gt;" style="text;html=1;strokeColor=none;fillColor=none;align=left;verticalAlign=middle;spacingLeft=4;spacingRight=4;overflow=hidden;rotatable=0;points=[[0,0.5],[1,0.5]];portConstraint=eastwest;whiteSpace=wrap;" vertex="1" parent="GJ7OKZnw5Xzyx3DYVOwt-75">
          <mxGeometry y="50" width="156" height="30" as="geometry" />
        </mxCell>
        <mxCell id="GJ7OKZnw5Xzyx3DYVOwt-78" value="" style="line;strokeWidth=1;fillColor=none;align=left;verticalAlign=middle;spacingTop=-1;spacingLeft=3;spacingRight=3;rotatable=0;labelPosition=right;points=[];portConstraint=eastwest;" vertex="1" parent="GJ7OKZnw5Xzyx3DYVOwt-75">
          <mxGeometry y="80" width="156" height="8" as="geometry" />
        </mxCell>
        <mxCell id="GJ7OKZnw5Xzyx3DYVOwt-79" value="metodi" style="text;html=1;strokeColor=none;fillColor=none;align=center;verticalAlign=middle;spacingLeft=4;spacingRight=4;overflow=hidden;rotatable=0;points=[[0,0.5],[1,0.5]];portConstraint=eastwest;whiteSpace=wrap;" vertex="1" parent="GJ7OKZnw5Xzyx3DYVOwt-75">
          <mxGeometry y="88" width="156" height="20" as="geometry" />
        </mxCell>
        <mxCell id="GJ7OKZnw5Xzyx3DYVOwt-80" value="void aggiungiForma&lt;div&gt;void stampaComponenti&lt;/div&gt;&lt;div&gt;double getInchiostroRGB&lt;/div&gt;&lt;div&gt;double calcolaAreaInBAseAlColore&lt;/div&gt;" style="text;html=1;strokeColor=none;fillColor=none;align=left;verticalAlign=middle;spacingLeft=4;spacingRight=4;overflow=hidden;rotatable=0;points=[[0,0.5],[1,0.5]];portConstraint=eastwest;whiteSpace=wrap;" vertex="1" parent="GJ7OKZnw5Xzyx3DYVOwt-75">
          <mxGeometry y="108" width="156" height="47" as="geometry" />
        </mxCell>
        <mxCell id="GJ7OKZnw5Xzyx3DYVOwt-81" value="&lt;b&gt;Stampabile&lt;/b&gt;&lt;div&gt;{interface}&lt;/div&gt;" style="swimlane;fontStyle=0;align=center;verticalAlign=top;childLayout=stackLayout;horizontal=1;startSize=55;horizontalStack=0;resizeParent=1;resizeParentMax=0;resizeLast=0;collapsible=0;marginBottom=0;html=1;whiteSpace=wrap;fillColor=#ffe6cc;strokeColor=#d79b00;" vertex="1" parent="1">
          <mxGeometry x="440" y="740" width="140" height="170" as="geometry" />
        </mxCell>
        <mxCell id="GJ7OKZnw5Xzyx3DYVOwt-82" value="attributi" style="text;html=1;strokeColor=none;fillColor=none;align=center;verticalAlign=middle;spacingLeft=4;spacingRight=4;overflow=hidden;rotatable=0;points=[[0,0.5],[1,0.5]];portConstraint=eastwest;whiteSpace=wrap;" vertex="1" parent="GJ7OKZnw5Xzyx3DYVOwt-81">
          <mxGeometry y="55" width="140" height="20" as="geometry" />
        </mxCell>
        <mxCell id="GJ7OKZnw5Xzyx3DYVOwt-83" value="double val" style="text;html=1;strokeColor=none;fillColor=none;align=left;verticalAlign=middle;spacingLeft=4;spacingRight=4;overflow=hidden;rotatable=0;points=[[0,0.5],[1,0.5]];portConstraint=eastwest;whiteSpace=wrap;" vertex="1" parent="GJ7OKZnw5Xzyx3DYVOwt-81">
          <mxGeometry y="75" width="140" height="20" as="geometry" />
        </mxCell>
        <mxCell id="GJ7OKZnw5Xzyx3DYVOwt-84" value="" style="line;strokeWidth=1;fillColor=none;align=left;verticalAlign=middle;spacingTop=-1;spacingLeft=3;spacingRight=3;rotatable=0;labelPosition=right;points=[];portConstraint=eastwest;" vertex="1" parent="GJ7OKZnw5Xzyx3DYVOwt-81">
          <mxGeometry y="95" width="140" height="8" as="geometry" />
        </mxCell>
        <mxCell id="GJ7OKZnw5Xzyx3DYVOwt-85" value="metodi" style="text;html=1;strokeColor=none;fillColor=none;align=center;verticalAlign=middle;spacingLeft=4;spacingRight=4;overflow=hidden;rotatable=0;points=[[0,0.5],[1,0.5]];portConstraint=eastwest;whiteSpace=wrap;" vertex="1" parent="GJ7OKZnw5Xzyx3DYVOwt-81">
          <mxGeometry y="103" width="140" height="20" as="geometry" />
        </mxCell>
        <mxCell id="GJ7OKZnw5Xzyx3DYVOwt-86" value="sostituisci&lt;div&gt;utilizzo&lt;/div&gt;" style="text;html=1;strokeColor=none;fillColor=none;align=left;verticalAlign=middle;spacingLeft=4;spacingRight=4;overflow=hidden;rotatable=0;points=[[0,0.5],[1,0.5]];portConstraint=eastwest;whiteSpace=wrap;" vertex="1" parent="GJ7OKZnw5Xzyx3DYVOwt-81">
          <mxGeometry y="123" width="140" height="47" as="geometry" />
        </mxCell>
        <mxCell id="GJ7OKZnw5Xzyx3DYVOwt-87" style="edgeStyle=orthogonalEdgeStyle;rounded=0;orthogonalLoop=1;jettySize=auto;html=1;exitX=0;exitY=0.5;exitDx=0;exitDy=0;entryX=1.008;entryY=0.25;entryDx=0;entryDy=0;entryPerimeter=0;endSize=10;" edge="1" parent="1" source="GJ7OKZnw5Xzyx3DYVOwt-38" target="GJ7OKZnw5Xzyx3DYVOwt-21">
          <mxGeometry relative="1" as="geometry" />
        </mxCell>
        <mxCell id="GJ7OKZnw5Xzyx3DYVOwt-89" style="edgeStyle=orthogonalEdgeStyle;rounded=0;orthogonalLoop=1;jettySize=auto;html=1;exitX=0;exitY=0.5;exitDx=0;exitDy=0;entryX=1;entryY=0.25;entryDx=0;entryDy=0;entryPerimeter=0;endSize=10;" edge="1" parent="1" source="GJ7OKZnw5Xzyx3DYVOwt-46" target="GJ7OKZnw5Xzyx3DYVOwt-21">
          <mxGeometry relative="1" as="geometry" />
        </mxCell>
        <mxCell id="GJ7OKZnw5Xzyx3DYVOwt-93" style="edgeStyle=orthogonalEdgeStyle;rounded=0;orthogonalLoop=1;jettySize=auto;html=1;exitX=0;exitY=0.5;exitDx=0;exitDy=0;endArrow=diamond;endFill=1;strokeWidth=2;targetPerimeterSpacing=0;endSize=15;" edge="1" parent="1" source="GJ7OKZnw5Xzyx3DYVOwt-21">
          <mxGeometry relative="1" as="geometry">
            <mxPoint x="331" y="535" as="targetPoint" />
          </mxGeometry>
        </mxCell>
        <mxCell id="GJ7OKZnw5Xzyx3DYVOwt-126" style="edgeStyle=orthogonalEdgeStyle;rounded=0;orthogonalLoop=1;jettySize=auto;html=1;exitX=0.5;exitY=0;exitDx=0;exitDy=0;entryX=0.5;entryY=1;entryDx=0;entryDy=0;strokeWidth=2;endSize=10;" edge="1" parent="1" source="GJ7OKZnw5Xzyx3DYVOwt-94" target="GJ7OKZnw5Xzyx3DYVOwt-118">
          <mxGeometry relative="1" as="geometry" />
        </mxCell>
        <mxCell id="GJ7OKZnw5Xzyx3DYVOwt-94" value="&lt;b&gt;Quadrato&lt;/b&gt;" style="swimlane;fontStyle=0;align=center;verticalAlign=top;childLayout=stackLayout;horizontal=1;startSize=30;horizontalStack=0;resizeParent=1;resizeParentMax=0;resizeLast=0;collapsible=0;marginBottom=0;html=1;whiteSpace=wrap;" vertex="1" parent="1">
          <mxGeometry x="306" y="1440" width="140" height="210" as="geometry" />
        </mxCell>
        <mxCell id="GJ7OKZnw5Xzyx3DYVOwt-95" value="attributi" style="text;html=1;strokeColor=none;fillColor=none;align=center;verticalAlign=middle;spacingLeft=4;spacingRight=4;overflow=hidden;rotatable=0;points=[[0,0.5],[1,0.5]];portConstraint=eastwest;whiteSpace=wrap;" vertex="1" parent="GJ7OKZnw5Xzyx3DYVOwt-94">
          <mxGeometry y="30" width="140" height="20" as="geometry" />
        </mxCell>
        <mxCell id="GJ7OKZnw5Xzyx3DYVOwt-96" value="double lato" style="text;html=1;strokeColor=none;fillColor=none;align=left;verticalAlign=middle;spacingLeft=4;spacingRight=4;overflow=hidden;rotatable=0;points=[[0,0.5],[1,0.5]];portConstraint=eastwest;whiteSpace=wrap;" vertex="1" parent="GJ7OKZnw5Xzyx3DYVOwt-94">
          <mxGeometry y="50" width="140" height="20" as="geometry" />
        </mxCell>
        <mxCell id="GJ7OKZnw5Xzyx3DYVOwt-97" value="Colore colore" style="text;html=1;strokeColor=none;fillColor=none;align=left;verticalAlign=middle;spacingLeft=4;spacingRight=4;overflow=hidden;rotatable=0;points=[[0,0.5],[1,0.5]];portConstraint=eastwest;fontColor=#808080;whiteSpace=wrap;" vertex="1" parent="GJ7OKZnw5Xzyx3DYVOwt-94">
          <mxGeometry y="70" width="140" height="20" as="geometry" />
        </mxCell>
        <mxCell id="GJ7OKZnw5Xzyx3DYVOwt-99" value="" style="line;strokeWidth=1;fillColor=none;align=left;verticalAlign=middle;spacingTop=-1;spacingLeft=3;spacingRight=3;rotatable=0;labelPosition=right;points=[];portConstraint=eastwest;" vertex="1" parent="GJ7OKZnw5Xzyx3DYVOwt-94">
          <mxGeometry y="90" width="140" height="8" as="geometry" />
        </mxCell>
        <mxCell id="GJ7OKZnw5Xzyx3DYVOwt-100" value="metodi" style="text;html=1;strokeColor=none;fillColor=none;align=center;verticalAlign=middle;spacingLeft=4;spacingRight=4;overflow=hidden;rotatable=0;points=[[0,0.5],[1,0.5]];portConstraint=eastwest;whiteSpace=wrap;" vertex="1" parent="GJ7OKZnw5Xzyx3DYVOwt-94">
          <mxGeometry y="98" width="140" height="20" as="geometry" />
        </mxCell>
        <mxCell id="GJ7OKZnw5Xzyx3DYVOwt-101" value="double calcolaPerimetro&lt;div&gt;double calcolaArea&lt;/div&gt;&lt;div&gt;&lt;br&gt;&lt;/div&gt;&lt;div&gt;@Override&lt;/div&gt;&lt;div&gt;void toString&lt;/div&gt;&lt;div&gt;&lt;br&gt;&lt;/div&gt;" style="text;html=1;strokeColor=none;fillColor=none;align=left;verticalAlign=middle;spacingLeft=4;spacingRight=4;overflow=hidden;rotatable=0;points=[[0,0.5],[1,0.5]];portConstraint=eastwest;whiteSpace=wrap;" vertex="1" parent="GJ7OKZnw5Xzyx3DYVOwt-94">
          <mxGeometry y="118" width="140" height="92" as="geometry" />
        </mxCell>
        <mxCell id="GJ7OKZnw5Xzyx3DYVOwt-127" style="edgeStyle=orthogonalEdgeStyle;rounded=0;orthogonalLoop=1;jettySize=auto;html=1;exitX=0.5;exitY=0;exitDx=0;exitDy=0;strokeWidth=2;endSize=10;" edge="1" parent="1" source="GJ7OKZnw5Xzyx3DYVOwt-102">
          <mxGeometry relative="1" as="geometry">
            <mxPoint x="376" y="1360" as="targetPoint" />
            <Array as="points">
              <mxPoint x="530" y="1400" />
              <mxPoint x="376" y="1400" />
            </Array>
          </mxGeometry>
        </mxCell>
        <mxCell id="GJ7OKZnw5Xzyx3DYVOwt-102" value="&lt;b&gt;Cerchio&lt;/b&gt;" style="swimlane;fontStyle=0;align=center;verticalAlign=top;childLayout=stackLayout;horizontal=1;startSize=30;horizontalStack=0;resizeParent=1;resizeParentMax=0;resizeLast=0;collapsible=0;marginBottom=0;html=1;whiteSpace=wrap;" vertex="1" parent="1">
          <mxGeometry x="460" y="1440" width="140" height="210" as="geometry" />
        </mxCell>
        <mxCell id="GJ7OKZnw5Xzyx3DYVOwt-103" value="attributi" style="text;html=1;strokeColor=none;fillColor=none;align=center;verticalAlign=middle;spacingLeft=4;spacingRight=4;overflow=hidden;rotatable=0;points=[[0,0.5],[1,0.5]];portConstraint=eastwest;whiteSpace=wrap;" vertex="1" parent="GJ7OKZnw5Xzyx3DYVOwt-102">
          <mxGeometry y="30" width="140" height="20" as="geometry" />
        </mxCell>
        <mxCell id="GJ7OKZnw5Xzyx3DYVOwt-104" value="double raggio" style="text;html=1;strokeColor=none;fillColor=none;align=left;verticalAlign=middle;spacingLeft=4;spacingRight=4;overflow=hidden;rotatable=0;points=[[0,0.5],[1,0.5]];portConstraint=eastwest;whiteSpace=wrap;" vertex="1" parent="GJ7OKZnw5Xzyx3DYVOwt-102">
          <mxGeometry y="50" width="140" height="20" as="geometry" />
        </mxCell>
        <mxCell id="GJ7OKZnw5Xzyx3DYVOwt-105" value="Colore colore" style="text;html=1;strokeColor=none;fillColor=none;align=left;verticalAlign=middle;spacingLeft=4;spacingRight=4;overflow=hidden;rotatable=0;points=[[0,0.5],[1,0.5]];portConstraint=eastwest;fontColor=#808080;whiteSpace=wrap;" vertex="1" parent="GJ7OKZnw5Xzyx3DYVOwt-102">
          <mxGeometry y="70" width="140" height="20" as="geometry" />
        </mxCell>
        <mxCell id="GJ7OKZnw5Xzyx3DYVOwt-107" value="" style="line;strokeWidth=1;fillColor=none;align=left;verticalAlign=middle;spacingTop=-1;spacingLeft=3;spacingRight=3;rotatable=0;labelPosition=right;points=[];portConstraint=eastwest;" vertex="1" parent="GJ7OKZnw5Xzyx3DYVOwt-102">
          <mxGeometry y="90" width="140" height="8" as="geometry" />
        </mxCell>
        <mxCell id="GJ7OKZnw5Xzyx3DYVOwt-108" value="metodi" style="text;html=1;strokeColor=none;fillColor=none;align=center;verticalAlign=middle;spacingLeft=4;spacingRight=4;overflow=hidden;rotatable=0;points=[[0,0.5],[1,0.5]];portConstraint=eastwest;whiteSpace=wrap;" vertex="1" parent="GJ7OKZnw5Xzyx3DYVOwt-102">
          <mxGeometry y="98" width="140" height="20" as="geometry" />
        </mxCell>
        <mxCell id="GJ7OKZnw5Xzyx3DYVOwt-109" value="double calcolaPerimetro&lt;div&gt;double calcolaArea&lt;/div&gt;&lt;div&gt;&lt;br&gt;&lt;/div&gt;&lt;div&gt;@Override&lt;/div&gt;&lt;div&gt;void toString&lt;/div&gt;&lt;div&gt;&lt;br&gt;&lt;/div&gt;" style="text;html=1;strokeColor=none;fillColor=none;align=left;verticalAlign=middle;spacingLeft=4;spacingRight=4;overflow=hidden;rotatable=0;points=[[0,0.5],[1,0.5]];portConstraint=eastwest;whiteSpace=wrap;" vertex="1" parent="GJ7OKZnw5Xzyx3DYVOwt-102">
          <mxGeometry y="118" width="140" height="92" as="geometry" />
        </mxCell>
        <mxCell id="GJ7OKZnw5Xzyx3DYVOwt-118" value="Forma&lt;br&gt;{abstract}" style="swimlane;fontStyle=0;align=center;verticalAlign=top;childLayout=stackLayout;horizontal=1;startSize=40;horizontalStack=0;resizeParent=1;resizeParentMax=0;resizeLast=0;collapsible=0;marginBottom=0;html=1;whiteSpace=wrap;fillColor=#dae8fc;strokeColor=#6c8ebf;" vertex="1" parent="1">
          <mxGeometry x="286" y="1190" width="180" height="170" as="geometry" />
        </mxCell>
        <mxCell id="GJ7OKZnw5Xzyx3DYVOwt-119" value="attributi" style="text;html=1;strokeColor=none;fillColor=none;align=center;verticalAlign=middle;spacingLeft=4;spacingRight=4;overflow=hidden;rotatable=0;points=[[0,0.5],[1,0.5]];portConstraint=eastwest;whiteSpace=wrap;" vertex="1" parent="GJ7OKZnw5Xzyx3DYVOwt-118">
          <mxGeometry y="40" width="180" height="20" as="geometry" />
        </mxCell>
        <mxCell id="GJ7OKZnw5Xzyx3DYVOwt-120" value="Colore colore" style="text;html=1;strokeColor=none;fillColor=none;align=left;verticalAlign=middle;spacingLeft=4;spacingRight=4;overflow=hidden;rotatable=0;points=[[0,0.5],[1,0.5]];portConstraint=eastwest;whiteSpace=wrap;" vertex="1" parent="GJ7OKZnw5Xzyx3DYVOwt-118">
          <mxGeometry y="60" width="180" height="20" as="geometry" />
        </mxCell>
        <mxCell id="GJ7OKZnw5Xzyx3DYVOwt-123" value="" style="line;strokeWidth=1;fillColor=none;align=left;verticalAlign=middle;spacingTop=-1;spacingLeft=3;spacingRight=3;rotatable=0;labelPosition=right;points=[];portConstraint=eastwest;" vertex="1" parent="GJ7OKZnw5Xzyx3DYVOwt-118">
          <mxGeometry y="80" width="180" height="8" as="geometry" />
        </mxCell>
        <mxCell id="GJ7OKZnw5Xzyx3DYVOwt-124" value="metodi" style="text;html=1;strokeColor=none;fillColor=none;align=center;verticalAlign=middle;spacingLeft=4;spacingRight=4;overflow=hidden;rotatable=0;points=[[0,0.5],[1,0.5]];portConstraint=eastwest;whiteSpace=wrap;" vertex="1" parent="GJ7OKZnw5Xzyx3DYVOwt-118">
          <mxGeometry y="88" width="180" height="20" as="geometry" />
        </mxCell>
        <mxCell id="GJ7OKZnw5Xzyx3DYVOwt-125" value="double&amp;nbsp; &amp;nbsp;getColInBaseAdArea&lt;div&gt;abstract calcolaPerimetro&lt;/div&gt;&lt;div&gt;abstract calcolaArea&lt;/div&gt;&lt;div&gt;abstract toString&lt;/div&gt;" style="text;html=1;strokeColor=none;fillColor=none;align=left;verticalAlign=middle;spacingLeft=4;spacingRight=4;overflow=hidden;rotatable=0;points=[[0,0.5],[1,0.5]];portConstraint=eastwest;whiteSpace=wrap;" vertex="1" parent="GJ7OKZnw5Xzyx3DYVOwt-118">
          <mxGeometry y="108" width="180" height="62" as="geometry" />
        </mxCell>
        <mxCell id="GJ7OKZnw5Xzyx3DYVOwt-139" style="edgeStyle=orthogonalEdgeStyle;shape=connector;rounded=0;orthogonalLoop=1;jettySize=auto;html=1;exitX=0.5;exitY=0;exitDx=0;exitDy=0;strokeColor=default;strokeWidth=2;align=center;verticalAlign=middle;fontFamily=Helvetica;fontSize=11;fontColor=default;labelBackgroundColor=default;endArrow=classic;endSize=10;dashed=1;" edge="1" parent="1" source="GJ7OKZnw5Xzyx3DYVOwt-129" target="GJ7OKZnw5Xzyx3DYVOwt-81">
          <mxGeometry relative="1" as="geometry" />
        </mxCell>
        <mxCell id="GJ7OKZnw5Xzyx3DYVOwt-129" value="&lt;b&gt;ImgRaster&lt;/b&gt;" style="swimlane;fontStyle=0;align=center;verticalAlign=top;childLayout=stackLayout;horizontal=1;startSize=30;horizontalStack=0;resizeParent=1;resizeParentMax=0;resizeLast=0;collapsible=0;marginBottom=0;html=1;whiteSpace=wrap;" vertex="1" parent="1">
          <mxGeometry x="570" y="980" width="160" height="155" as="geometry" />
        </mxCell>
        <mxCell id="GJ7OKZnw5Xzyx3DYVOwt-130" value="attributi" style="text;html=1;strokeColor=none;fillColor=none;align=center;verticalAlign=middle;spacingLeft=4;spacingRight=4;overflow=hidden;rotatable=0;points=[[0,0.5],[1,0.5]];portConstraint=eastwest;whiteSpace=wrap;" vertex="1" parent="GJ7OKZnw5Xzyx3DYVOwt-129">
          <mxGeometry y="30" width="160" height="20" as="geometry" />
        </mxCell>
        <mxCell id="GJ7OKZnw5Xzyx3DYVOwt-131" value="Colore[ ][ ] matricePixel" style="text;html=1;strokeColor=none;fillColor=none;align=left;verticalAlign=middle;spacingLeft=4;spacingRight=4;overflow=hidden;rotatable=0;points=[[0,0.5],[1,0.5]];portConstraint=eastwest;whiteSpace=wrap;" vertex="1" parent="GJ7OKZnw5Xzyx3DYVOwt-129">
          <mxGeometry y="50" width="160" height="30" as="geometry" />
        </mxCell>
        <mxCell id="GJ7OKZnw5Xzyx3DYVOwt-132" value="" style="line;strokeWidth=1;fillColor=none;align=left;verticalAlign=middle;spacingTop=-1;spacingLeft=3;spacingRight=3;rotatable=0;labelPosition=right;points=[];portConstraint=eastwest;" vertex="1" parent="GJ7OKZnw5Xzyx3DYVOwt-129">
          <mxGeometry y="80" width="160" height="8" as="geometry" />
        </mxCell>
        <mxCell id="GJ7OKZnw5Xzyx3DYVOwt-133" value="metodi" style="text;html=1;strokeColor=none;fillColor=none;align=center;verticalAlign=middle;spacingLeft=4;spacingRight=4;overflow=hidden;rotatable=0;points=[[0,0.5],[1,0.5]];portConstraint=eastwest;whiteSpace=wrap;" vertex="1" parent="GJ7OKZnw5Xzyx3DYVOwt-129">
          <mxGeometry y="88" width="160" height="20" as="geometry" />
        </mxCell>
        <mxCell id="GJ7OKZnw5Xzyx3DYVOwt-134" value="void aggiungiForma&lt;div&gt;void stampaComponenti&lt;/div&gt;&lt;div&gt;double getInchiostroRGB&lt;/div&gt;" style="text;html=1;strokeColor=none;fillColor=none;align=left;verticalAlign=middle;spacingLeft=4;spacingRight=4;overflow=hidden;rotatable=0;points=[[0,0.5],[1,0.5]];portConstraint=eastwest;whiteSpace=wrap;" vertex="1" parent="GJ7OKZnw5Xzyx3DYVOwt-129">
          <mxGeometry y="108" width="160" height="47" as="geometry" />
        </mxCell>
        <mxCell id="GJ7OKZnw5Xzyx3DYVOwt-136" style="edgeStyle=orthogonalEdgeStyle;rounded=0;orthogonalLoop=1;jettySize=auto;html=1;exitX=0;exitY=0.5;exitDx=0;exitDy=0;entryX=1;entryY=0.5;entryDx=0;entryDy=0;endArrow=diamond;endFill=0;strokeWidth=2;startSize=6;endSize=15;" edge="1" parent="1" source="GJ7OKZnw5Xzyx3DYVOwt-71" target="GJ7OKZnw5Xzyx3DYVOwt-118">
          <mxGeometry relative="1" as="geometry" />
        </mxCell>
      </root>
    </mxGraphModel>
  </diagram>
</mxfile>
